<svg xmlns="http://www.w3.org/2000/svg" viewBox="0 0 512 512" width="512" height="512">
  <defs>
    <linearGradient id="bgGrad" x1="0%" y1="0%" x2="100%" y2="100%">
      <stop offset="0%" stop-color="#0054A6"/>
      <stop offset="100%" stop-color="#0B132B"/>
    </linearGradient>
    <linearGradient id="goldGrad" x1="0%" y1="0%" x2="100%" y2="0%">
      <stop offset="0%" stop-color="#FDB913"/>
      <stop offset="100%" stop-color="#F59E0B"/>
    </linearGradient>
    <filter id="shadow" x="-10%" y="-10%" width="120%" height="120%">
      <feDropShadow dx="0" dy="8" stdDeviation="12" flood-color="#000000" flood-opacity="0.35"/>
    </filter>
  </defs>
  <!-- Background Rounded Shield -->
  <rect width="512" height="512" rx="112" fill="url(#bgGrad)"/>
  <!-- Gold Accent Ring -->
  <rect x="24" y="24" width="464" height="464" rx="96" fill="none" stroke="url(#goldGrad)" stroke-width="8" opacity="0.85"/>
  
  <!-- Clipboard Body -->
  <rect x="136" y="110" width="240" height="300" rx="20" fill="#FFFFFF" filter="url(#shadow)"/>
  
  <!-- Top Clip (VKU Crimson) -->
  <rect x="200" y="86" width="112" height="42" rx="10" fill="#ED1C24" filter="url(#shadow)"/>
  <circle cx="256" cy="107" r="8" fill="#FFFFFF"/>
  
  <!-- Checklist Items -->
  <!-- Item 1: Checked -->
  <circle cx="180" cy="180" r="14" fill="#10B981"/>
  <path d="M174 180 L178 184 L187 175" stroke="#FFFFFF" stroke-width="3.5" stroke-linecap="round" stroke-linejoin="round" fill="none"/>
  <rect x="208" y="174" width="138" height="12" rx="6" fill="#334155"/>

  <!-- Item 2: Checked -->
  <circle cx="180" cy="236" r="14" fill="#10B981"/>
  <path d="M174 236 L178 240 L187 231" stroke="#FFFFFF" stroke-width="3.5" stroke-linecap="round" stroke-linejoin="round" fill="none"/>
  <rect x="208" y="230" width="120" height="12" rx="6" fill="#334155"/>

  <!-- Item 3: Inspection Alert / Warning -->
  <circle cx="180" cy="292" r="14" fill="#F59E0B"/>
  <rect x="178.5" y="284" width="3" height="10" rx="1.5" fill="#FFFFFF"/>
  <circle cx="180" cy="299" r="1.8" fill="#FFFFFF"/>
  <rect x="208" y="286" width="105" height="12" rx="6" fill="#334155"/>

  <!-- Item 4: Normal check -->
  <circle cx="180" cy="348" r="14" fill="#0054A6"/>
  <path d="M174 348 L178 352 L187 343" stroke="#FFFFFF" stroke-width="3.5" stroke-linecap="round" stroke-linejoin="round" fill="none"/>
  <rect x="208" y="342" width="130" height="12" rx="6" fill="#64748B"/>

  <!-- Badge at bottom: VKU -->
  <rect x="166" y="425" width="180" height="38" rx="19" fill="url(#goldGrad)"/>
  <text x="256" y="451" font-family="-apple-system, BlinkMacSystemFont, 'Segoe UI', Roboto, sans-serif" font-size="20" font-weight="900" fill="#003B75" text-anchor="middle" letter-spacing="3">VKU SURVEY</text>
</svg>